<svg width="25" height="22" viewBox="0 0 25 22" fill="none" xmlns="http://www.w3.org/2000/svg">
<path d="M12.2811 21.0946C12.0516 21.0946 11.8574 21.0151 11.6985 20.8563L3.43671 12.8857C3.34844 12.8151 3.22707 12.7004 3.0726 12.5415C2.91814 12.3826 2.6732 12.0935 2.33778 11.6743C2.00236 11.255 1.70226 10.8247 1.43745 10.3834C1.17265 9.94201 0.936539 9.408 0.729111 8.7813C0.521683 8.1546 0.417969 7.54556 0.417969 6.95417C0.417969 5.01229 0.978465 3.4941 2.09946 2.39958C3.22045 1.30507 4.76954 0.757812 6.74673 0.757812C7.29398 0.757812 7.85227 0.8527 8.4216 1.04247C8.99092 1.23225 9.52052 1.48822 10.0104 1.8104C10.5003 2.13257 10.9218 2.43489 11.2748 2.71734C11.6279 2.9998 11.9633 3.29991 12.2811 3.61767C12.5988 3.29991 12.9343 2.9998 13.2873 2.71734C13.6404 2.43489 14.0619 2.13257 14.5518 1.8104C15.0416 1.48822 15.5712 1.23225 16.1406 1.04247C16.7099 0.8527 17.2682 0.757812 17.8154 0.757812C19.7926 0.757812 21.3417 1.30507 22.4627 2.39958C23.5837 3.4941 24.1442 5.01229 24.1442 6.95417C24.1442 8.90487 23.1335 10.8909 21.1122 12.9122L12.8636 20.8563C12.7048 21.0151 12.5106 21.0946 12.2811 21.0946Z" fill="#F69021"/>
</svg>
