<svg width="12" height="15" viewBox="0 0 12 15" fill="none" xmlns="http://www.w3.org/2000/svg">
<path fill-rule="evenodd" clip-rule="evenodd" d="M8.05286 0.82012C7.99853 0.709024 7.92166 0.611006 7.82736 0.532577C7.73306 0.454148 7.62349 0.397106 7.50593 0.365241C7.38837 0.333376 7.26551 0.327418 7.14552 0.347763C7.02553 0.368109 6.91116 0.414291 6.81 0.483241C6.51429 0.684493 6.28372 0.971496 6.10543 1.25325C5.922 1.542 5.76 1.87713 5.61686 2.22976C5.33057 2.93327 5.09057 3.77677 4.89686 4.62203C4.66259 5.65497 4.48715 6.7009 4.37143 7.75456C4.02269 7.52505 3.74247 7.20207 3.56143 6.82093C3.28029 6.22592 3.22029 5.47867 3.22029 4.49866C3.22025 4.32562 3.16996 4.15649 3.07578 4.01262C2.98159 3.86876 2.84774 3.75664 2.69114 3.69043C2.53454 3.62422 2.36222 3.60689 2.19598 3.64064C2.02973 3.67438 1.87702 3.75769 1.75715 3.88003C1.19929 4.44829 0.756884 5.12345 0.455342 5.86674C0.1538 6.61003 -0.000941238 7.40681 4.30725e-06 8.21132C7.55021e-05 9.21856 0.243473 10.2102 0.708637 11.0985C1.1738 11.9868 1.84638 12.7443 2.66679 13.3038C3.4872 13.8634 4.43013 14.2078 5.41206 14.3065C6.39398 14.4052 7.3846 14.2551 8.29616 13.8697C9.20772 13.4842 10.0121 12.8752 10.638 12.0966C11.264 11.318 11.6922 10.3938 11.8847 9.40594C12.0772 8.41805 12.0281 7.39695 11.7417 6.43307C11.4553 5.46919 10.9405 4.59229 10.2429 3.88003C9.73543 3.3629 9.40286 3.01814 9.08743 2.59639C8.77629 2.17988 8.46686 1.66625 8.05286 0.82012ZM7.81714 11.8164C7.45753 12.183 6.99955 12.4326 6.50104 12.5337C6.00253 12.6348 5.48585 12.5829 5.01627 12.3844C4.54668 12.1859 4.14524 11.8498 3.86266 11.4185C3.58008 10.9873 3.42902 10.4802 3.42857 9.96133C3.42857 9.96133 4.182 10.3988 5.57143 10.3988C5.57143 9.52383 6 6.8988 6.64286 6.4613C7.07143 7.33631 7.31657 7.59269 7.818 8.10544C8.05718 8.34885 8.24687 8.63812 8.37617 8.95662C8.50547 9.27512 8.57183 9.61657 8.57143 9.96133C8.57183 10.3061 8.50547 10.6475 8.37617 10.966C8.24687 11.2845 8.05718 11.5738 7.818 11.8172L7.81714 11.8164Z" fill="#FF9D0B"/>
</svg>
