<svg width="36" height="32" viewBox="0 0 36 32" fill="none" xmlns="http://www.w3.org/2000/svg">
<path d="M18.063 31.0989C17.7242 31.0989 17.4376 30.9797 17.203 30.7414L5.00701 18.7856C4.87671 18.6797 4.69755 18.5076 4.46953 18.2693C4.24151 18.0309 3.87993 17.5973 3.38479 16.9684C2.88965 16.3395 2.44663 15.6941 2.05574 15.0321C1.66484 14.3701 1.31629 13.569 1.01009 12.629C0.703883 11.6889 0.550781 10.7754 0.550781 9.88829C0.550781 6.97547 1.37818 4.69817 3.03298 3.0564C4.68778 1.41463 6.97453 0.59375 9.89323 0.59375C10.7011 0.59375 11.5252 0.736081 12.3657 1.02074C13.2061 1.3054 13.9879 1.68937 14.711 2.17263C15.4342 2.65589 16.0564 3.10936 16.5776 3.53305C17.0988 3.95673 17.5939 4.40689 18.063 4.88354C18.5321 4.40689 19.0272 3.95673 19.5484 3.53305C20.0696 3.10936 20.6918 2.65589 21.4149 2.17263C22.1381 1.68937 22.9199 1.3054 23.7603 1.02074C24.6008 0.736081 25.4249 0.59375 26.2328 0.59375C29.1515 0.59375 31.4382 1.41463 33.093 3.0564C34.7478 4.69817 35.5752 6.97547 35.5752 9.88829C35.5752 12.8143 34.0833 15.7934 31.0994 18.8253L18.923 30.7414C18.6884 30.9797 18.4018 31.0989 18.063 31.0989Z" fill="#F69021"/>
</svg>
