<svg width="24" height="22" viewBox="0 0 24 22" fill="none" xmlns="http://www.w3.org/2000/svg">
<path d="M11.9725 21.0946C11.743 21.0946 11.5488 21.0151 11.3899 20.8563L3.12811 12.8857C3.03985 12.8151 2.91848 12.7004 2.76401 12.5415C2.60954 12.3826 2.3646 12.0935 2.02919 11.6743C1.69377 11.255 1.39366 10.8247 1.12886 10.3834C0.864059 9.94201 0.627945 9.408 0.420517 8.7813C0.213089 8.1546 0.109375 7.54556 0.109375 6.95417C0.109375 5.01229 0.669872 3.4941 1.79086 2.39958C2.91186 1.30507 4.46095 0.757812 6.43813 0.757812C6.98539 0.757812 7.54368 0.8527 8.113 1.04247C8.68233 1.23225 9.21193 1.48822 9.70181 1.8104C10.1917 2.13257 10.6132 2.43489 10.9662 2.71734C11.3193 2.9998 11.6547 3.29991 11.9725 3.61767C12.2902 3.29991 12.6257 2.9998 12.9787 2.71734C13.3318 2.43489 13.7533 2.13257 14.2432 1.8104C14.733 1.48822 15.2626 1.23225 15.832 1.04247C16.4013 0.8527 16.9596 0.757812 17.5068 0.757812C19.484 0.757812 21.0331 1.30507 22.1541 2.39958C23.2751 3.4941 23.8356 5.01229 23.8356 6.95417C23.8356 8.90487 22.8249 10.8909 20.8036 12.9122L12.555 20.8563C12.3962 21.0151 12.202 21.0946 11.9725 21.0946Z" fill="#F69021"/>
</svg>
